<svg width="1200" height="630" viewBox="0 0 1200 630" fill="none" xmlns="http://www.w3.org/2000/svg">
  <rect width="1200" height="630" rx="36" fill="#F7F5F2"/>
  <rect x="56" y="56" width="1088" height="518" rx="32" fill="#FFFFFF" stroke="#E4DED5" stroke-width="2"/>
  <rect x="112" y="112" width="420" height="88" rx="24" fill="#F3EFE8" stroke="#E4DED5" stroke-width="2"/>
  <rect x="112" y="228" width="640" height="246" rx="28" fill="#FCFBF8" stroke="#E4DED5" stroke-width="2"/>
  <rect x="780" y="228" width="308" height="246" rx="28" fill="#FCFBF8" stroke="#E4DED5" stroke-width="2"/>
  <rect x="112" y="500" width="976" height="36" rx="18" fill="#F3EFE8"/>
  <text x="148" y="167" fill="#2E2A25" font-family="ui-monospace, SFMono-Regular, Menlo, Monaco, Consolas, Liberation Mono, monospace" font-size="34">Search emoji</text>
  <text x="815" y="167" fill="#2E2A25" font-family="ui-sans-serif, system-ui, -apple-system, BlinkMacSystemFont, Segoe UI, sans-serif" font-size="44" font-weight="700">frimousse</text>
  <text x="815" y="208" fill="#6B635A" font-family="ui-sans-serif, system-ui, -apple-system, BlinkMacSystemFont, Segoe UI, sans-serif" font-size="24">Composable emoji picker primitives</text>
  <g fill="#2E2A25" font-family="Apple Color Emoji, Segoe UI Emoji, Noto Color Emoji, sans-serif" font-size="46">
    <text x="152" y="305">😀</text>
    <text x="224" y="305">🥳</text>
    <text x="296" y="305">🌊</text>
    <text x="368" y="305">❤️</text>
    <text x="440" y="305">👍</text>
    <text x="512" y="305">🚀</text>
    <text x="584" y="305">✨</text>
    <text x="656" y="305">🎉</text>
    <text x="152" y="385">😎</text>
    <text x="224" y="385">🤝</text>
    <text x="296" y="385">🐳</text>
    <text x="368" y="385">🔥</text>
    <text x="440" y="385">🎈</text>
    <text x="512" y="385">💯</text>
    <text x="584" y="385">🧠</text>
    <text x="656" y="385">🍰</text>
  </g>
  <text x="152" y="455" fill="#6B635A" font-family="ui-sans-serif, system-ui, -apple-system, BlinkMacSystemFont, Segoe UI, sans-serif" font-size="24">Base API</text>
  <text x="815" y="284" fill="#6B635A" font-family="ui-sans-serif, system-ui, -apple-system, BlinkMacSystemFont, Segoe UI, sans-serif" font-size="22">Grouped search</text>
  <text x="815" y="334" fill="#2E2A25" font-family="ui-monospace, SFMono-Regular, Menlo, Monaco, Consolas, Liberation Mono, monospace" font-size="28">:wave:</text>
  <text x="815" y="378" fill="#2E2A25" font-family="ui-monospace, SFMono-Regular, Menlo, Monaco, Consolas, Liberation Mono, monospace" font-size="28">:ocean:</text>
  <text x="815" y="422" fill="#2E2A25" font-family="ui-monospace, SFMono-Regular, Menlo, Monaco, Consolas, Liberation Mono, monospace" font-size="28">:party_parrot:</text>
  <text x="1030" y="335" fill="#2E2A25" font-family="Apple Color Emoji, Segoe UI Emoji, Noto Color Emoji, sans-serif" font-size="34">👋</text>
  <text x="1030" y="379" fill="#2E2A25" font-family="Apple Color Emoji, Segoe UI Emoji, Noto Color Emoji, sans-serif" font-size="34">🌊</text>
  <text x="1030" y="423" fill="#2E2A25" font-family="Apple Color Emoji, Segoe UI Emoji, Noto Color Emoji, sans-serif" font-size="34">🦜</text>
</svg>
